<svg width="100" height="100" viewBox="0 0 100 100" fill="none" xmlns="http://www.w3.org/2000/svg">
<g clip-path="url(#clip0_1384_242)">
<path d="M68.3594 23.65C67.8719 23.65 67.5469 23.7156 67.2188 23.7969V23.8469H67.2687C67.4969 24.2688 67.8719 24.5969 68.1625 24.9875C68.3906 25.4281 68.5844 25.8813 68.7969 26.3219L68.8625 26.2563C69.2531 25.9781 69.45 25.5406 69.45 24.8719C69.2875 24.675 69.2531 24.4656 69.1094 24.2844C68.9469 24.0063 68.5875 23.8625 68.3594 23.65ZM24.0406 78.6281H20.1844C20.0676 72.4901 19.6933 66.3598 19.0625 60.2531H19.0313L13.1563 78.6281H10.2094L4.38125 60.2531H4.33125C3.87833 66.3687 3.60738 72.4964 3.51875 78.6281H0.00312495C0.193488 70.9224 0.763973 63.2308 1.7125 55.5813H6.49688L12.0625 72.5094H12.0937L17.7094 55.5813H22.2656C23.275 63.9813 23.8781 71.6625 24.0563 78.6281H24.0406ZM40.7719 61.6219C39.2094 70.15 37.125 76.3531 34.5719 80.2094C32.5531 83.1875 30.3562 84.6844 27.9625 84.6844C27.3281 84.6844 26.5469 84.4875 25.6031 84.0969V82.0469C26.075 82.1125 26.6125 82.1594 27.2156 82.1594C28.3375 82.1594 29.2344 81.8344 29.9187 81.2313C30.7312 80.4813 31.1406 79.6375 31.1406 78.7094C31.1406 78.0594 30.8312 76.7563 30.1812 74.7719L25.9656 61.6219H29.7594L32.7875 71.4531C33.4719 73.7 33.7656 75.2469 33.6344 76.1406C35.3094 71.7125 36.4656 66.8625 37.1187 61.6219H40.7719ZM92.1375 78.6281H81.1688V55.5813H84.8625V75.7969H92.1375V78.6281ZM78.3031 79.1844L74.0719 77.1C74.4469 76.7906 74.8031 76.45 75.1313 76.0594C76.9375 73.9594 77.8344 70.8188 77.8344 66.6844C77.8344 59.05 74.8406 55.2438 68.85 55.2438C65.9188 55.2438 63.625 56.2031 61.9813 58.1406C60.1906 60.2563 59.2781 63.3813 59.2781 67.5C59.2781 71.5531 60.075 74.5156 61.6719 76.4188C63.1375 78.1125 65.3344 78.975 68.2813 78.975C69.3719 78.975 70.3812 78.8438 71.2937 78.5688L76.8125 81.7906L78.325 79.1875L78.3031 79.1844ZM64.5844 74.0063C63.6406 72.5094 63.1844 70.1 63.1844 66.7781C63.1844 60.9688 64.9438 58.0719 68.475 58.0719C70.3156 58.0719 71.6813 58.7719 72.5438 60.1563C73.4719 61.6688 73.9438 64.0469 73.9438 67.3344C73.9438 73.1781 72.1688 76.125 68.6531 76.125C66.7969 76.125 65.4469 75.425 64.5688 74.0406L64.5844 74.0063ZM57.6813 72.25C57.6813 74.2031 56.9656 75.8156 55.5156 77.05C54.0844 78.3031 52.1781 78.9375 49.7531 78.9375C47.4906 78.9375 45.325 78.2219 43.1937 76.7875L44.1875 74.8031C46.0094 75.7156 47.6531 76.1719 49.1531 76.1719C50.5375 76.1719 51.6281 75.8625 52.4094 75.2594C53.1906 74.6406 53.6625 73.7781 53.6625 72.6875C53.6625 71.3188 52.7031 70.1469 50.9594 69.1719C49.3469 68.2781 46.1094 66.4375 46.1094 66.4375C44.35 65.1531 43.4875 63.7844 43.4875 61.5219C43.4875 59.65 44.1375 58.1531 45.4406 57.0125C46.7594 55.8406 48.4344 55.2719 50.5188 55.2719C52.5925 55.2539 54.6254 55.8485 56.3625 56.9813L55.4688 58.9656C54.0724 58.3507 52.5662 58.0244 51.0406 58.0063C49.8531 58.0063 48.9406 58.3 48.3062 58.8688C47.6719 59.4375 47.2812 60.1531 47.2812 61.05C47.2812 62.4188 48.2594 63.5906 50.0469 64.5969C51.6906 65.4906 54.9938 67.3813 54.9938 67.3813C56.8 68.65 57.6969 70.0188 57.6969 72.2469L57.6813 72.25ZM96.7625 47.8531C94.5313 47.8031 92.8063 48.0313 91.3594 48.65C90.9531 48.8125 90.2844 48.8125 90.2188 49.3344C90.4469 49.5625 90.4781 49.9219 90.675 50.2281C91.0156 50.7813 91.5875 51.5313 92.125 51.9219C92.7125 52.3781 93.2969 52.8344 93.9 53.225C94.9906 53.8938 96.2125 54.2844 97.2844 54.95C97.8875 55.3406 98.5063 55.8438 99.1063 56.2531C99.4156 56.4656 99.6094 56.8406 100 56.9688V56.8875C99.8031 56.6438 99.7562 56.2844 99.5594 55.9938C99.2812 55.7156 99.0063 55.4719 98.7281 55.1969C97.9131 54.1149 96.936 53.1651 95.8313 52.3813C94.9375 51.7781 92.9844 50.9313 92.625 49.9063L92.575 49.8406C93.1781 49.7906 93.8938 49.5625 94.4781 49.4C95.4219 49.1563 96.3 49.2031 97.2781 48.9594C97.7268 48.8429 98.1718 48.7127 98.6125 48.5688V48.325C98.1094 47.8219 97.7344 47.1375 97.2125 46.6656C95.7744 45.4073 94.2395 44.2642 92.6219 43.2469C91.7438 42.6781 90.6375 42.3188 89.7094 41.8469C89.3844 41.6844 88.8156 41.6031 88.6344 41.325C88.1313 40.7063 87.8375 39.9094 87.4781 39.175C86.6607 37.5863 85.9008 35.9685 85.2 34.325C84.6969 33.2344 84.4031 32.1594 83.7844 31.15C80.9188 26.4125 77.7938 23.55 73.0094 20.7344C71.9844 20.1469 70.7469 19.9031 69.4438 19.5938C68.7438 19.5625 68.0594 19.5125 67.3594 19.4813C66.9031 19.2844 66.4656 18.7656 66.075 18.5031C64.4812 17.4938 60.3781 15.3281 59.2219 18.1938C58.4719 20.0156 60.3281 21.7906 60.9813 22.7031C61.4531 23.3531 62.0562 24.0719 62.3969 24.7875C62.5937 25.275 62.6406 25.7813 62.8375 26.2844C63.2781 27.5063 63.7 28.8719 64.2875 30.0125C64.5969 30.6 64.9219 31.2156 65.3125 31.7375C65.5406 32.0469 65.9313 32.1781 66.0125 32.6813C65.6219 33.25 65.5906 34.0813 65.3781 34.7656C64.3688 37.9219 64.7594 41.8125 66.175 44.1406C66.6313 44.8406 67.6875 46.3719 69.1063 45.7844C70.3594 45.2813 70.0844 43.7 70.4406 42.3C70.5219 41.9594 70.4719 41.7469 70.6375 41.5188V41.5844C71.0438 42.3656 71.4344 43.1156 71.7938 43.8969C72.6406 45.2656 74.1531 46.6813 75.4062 47.625C76.075 48.1281 76.5937 48.9938 77.425 49.3V49.2188H77.3594C77.1812 48.975 76.9531 48.8594 76.725 48.6656C76.1973 48.1429 75.7075 47.5831 75.2594 46.9906C74.1031 45.4281 73.0625 43.7031 72.15 41.9281C71.7104 41.0511 71.309 40.1555 70.9469 39.2438C70.7844 38.9188 70.7844 38.4125 70.5063 38.25C70.0844 38.8531 69.4656 39.3719 69.1719 40.1375C68.6344 41.325 68.5844 42.8063 68.375 44.3375C68.2781 44.3688 68.325 44.3375 68.2781 44.4031C67.3844 44.175 67.075 43.2625 66.7469 42.4813C65.9 40.4969 65.7687 37.3219 66.4875 35.0438C66.6844 34.4563 67.5125 32.6188 67.1875 32.0656C67.0094 31.5281 66.4563 31.2188 66.1625 30.7969C65.7875 30.275 65.4125 29.6094 65.1531 29.0219C64.4844 27.4594 64.1594 25.7344 63.4281 24.1719C63.1031 23.4563 62.5156 22.7063 62.0438 22.0406C61.5063 21.2906 60.9219 20.7563 60.5125 19.875C60.3656 19.5656 60.1719 19.0625 60.4 18.7344C60.45 18.5063 60.5625 18.425 60.7906 18.3594C61.15 18.05 62.1906 18.4406 62.55 18.6188C63.575 19.025 64.4375 19.4156 65.3 20.0031C65.6906 20.2813 66.1125 20.8 66.6188 20.9469H67.2063C68.1 21.1438 69.0937 20.9969 69.925 21.2563C71.4062 21.7281 72.7406 22.4125 73.9438 23.1594C77.6231 25.5213 80.6152 28.8108 82.6188 32.6969C82.9594 33.3313 83.1063 33.9188 83.4156 34.5844C83.9844 35.9688 84.7188 37.35 85.3031 38.6688C85.8875 39.9875 86.4437 41.3219 87.2875 42.4125C87.7094 43 89.3719 43.3063 90.1344 43.6C90.6875 43.8594 91.55 44.0875 92.0375 44.3813C92.9969 44.9688 93.9406 45.6344 94.8375 46.2844C95.2938 46.5938 96.6781 47.2938 96.7594 47.8469L96.7625 47.8531Z" fill="url(#paint0_linear_1384_242)"/>
</g>
<defs>
<linearGradient id="paint0_linear_1384_242" x1="-0.549088" y1="16.7318" x2="47.8544" y2="99.4778" gradientUnits="userSpaceOnUse">
<stop stop-color="#119A8E"/>
<stop offset="1" stop-color="#37ED7D"/>
</linearGradient>
<clipPath id="clip0_1384_242">
<rect width="100" height="100" fill="white"/>
</clipPath>
</defs>
</svg>
